<svg width="198" height="61" viewBox="0 0 198 61" fill="none" xmlns="http://www.w3.org/2000/svg">
<path d="M55.5576 59.9762V52.6082C55.5576 51.8562 55.2936 51.2162 54.7656 50.6882C54.5256 50.4482 54.2376 50.2562 53.9016 50.1122C53.5816 49.9682 53.2536 49.8962 52.9176 49.8962C52.1976 49.8962 51.5736 50.1602 51.0456 50.6882C50.5176 51.2162 50.2536 51.8562 50.2536 52.6082V59.9762H48.1416V43.9682H50.2536V48.8162C51.0216 48.0962 51.9096 47.7362 52.9176 47.7362C53.5576 47.7362 54.1656 47.8642 54.7416 48.1202C55.3176 48.3602 55.8296 48.7042 56.2776 49.1522C56.7096 49.6002 57.0456 50.1282 57.2856 50.7362C57.5416 51.3282 57.6696 51.9522 57.6696 52.6082V59.9762H55.5576Z" fill="#12415A"/>
<path d="M62.1353 54.8882C62.1353 55.2722 62.2713 55.6722 62.5433 56.0882C62.8313 56.5042 63.1593 56.8562 63.5273 57.1442C64.1993 57.6722 64.9833 57.9362 65.8793 57.9362C67.3033 57.9362 68.4633 57.2482 69.3593 55.8722L71.1833 56.9522C70.5593 57.9602 69.7913 58.7362 68.8793 59.2802C67.9673 59.8242 66.9673 60.0962 65.8793 60.0962C65.0633 60.0962 64.2873 59.9442 63.5513 59.6402C62.8153 59.3202 62.1673 58.8802 61.6073 58.3202C61.0473 57.7602 60.6073 57.1122 60.2873 56.3762C59.9833 55.6402 59.8313 54.8642 59.8313 54.0482C59.8313 53.2322 59.9833 52.4562 60.2873 51.7202C60.6073 50.9682 61.0473 50.3122 61.6073 49.7522C62.1513 49.1922 62.7913 48.7602 63.5273 48.4562C64.2793 48.1522 65.0633 48.0002 65.8793 48.0002C66.6953 48.0002 67.4713 48.1522 68.2073 48.4562C68.9593 48.7602 69.6073 49.1922 70.1513 49.7522C71.3353 50.9682 71.9273 52.3762 71.9273 53.9762C71.9273 54.2642 71.9033 54.5682 71.8553 54.8882H62.1353ZM65.8793 49.9682C65.2233 49.9682 64.6073 50.1122 64.0313 50.4002C63.4553 50.6882 62.9913 51.0722 62.6393 51.5522C62.3033 52.0162 62.1353 52.5122 62.1353 53.0402H69.6233C69.6233 52.5122 69.4473 52.0162 69.0953 51.5522C68.7593 51.0722 68.3033 50.6882 67.7273 50.4002C67.1513 50.1122 66.5353 49.9682 65.8793 49.9682Z" fill="#12415A"/>
<path d="M83.5725 59.9762V58.1522C83.0605 58.7442 82.4685 59.2162 81.7965 59.5682C81.1245 59.9202 80.4125 60.0962 79.6605 60.0962C78.8285 60.0962 78.0445 59.9442 77.3085 59.6402C76.5885 59.3362 75.9485 58.9042 75.3885 58.3442C74.8285 57.8002 74.3885 57.1602 74.0685 56.4242C73.7645 55.6722 73.6125 54.8882 73.6125 54.0722C73.6125 53.2562 73.7645 52.4802 74.0685 51.7442C74.3885 50.9922 74.8285 50.3362 75.3885 49.7762C75.9485 49.2162 76.5885 48.7842 77.3085 48.4802C78.0445 48.1762 78.8285 48.0242 79.6605 48.0242C80.4285 48.0242 81.1485 48.1842 81.8205 48.5042C82.5085 48.8242 83.0925 49.2722 83.5725 49.8482V48.2642H85.7325V59.9762H83.5725ZM79.6605 50.1602C79.1325 50.1602 78.6205 50.2642 78.1245 50.4722C77.6445 50.6642 77.2285 50.9362 76.8765 51.2882C76.5245 51.6402 76.2445 52.0642 76.0365 52.5602C75.8445 53.0402 75.7485 53.5442 75.7485 54.0722C75.7485 54.6002 75.8445 55.1042 76.0365 55.5842C76.2445 56.0642 76.5245 56.4802 76.8765 56.8322C77.2285 57.1842 77.6445 57.4642 78.1245 57.6722C78.6205 57.8642 79.1325 57.9602 79.6605 57.9602C80.1885 57.9602 80.6925 57.8642 81.1725 57.6722C81.6525 57.4642 82.0685 57.1842 82.4205 56.8322C82.7725 56.4802 83.0445 56.0642 83.2365 55.5842C83.4445 55.1042 83.5485 54.6002 83.5485 54.0722C83.5485 53.5442 83.4445 53.0402 83.2365 52.5602C83.0445 52.0642 82.7725 51.6402 82.4205 51.2882C82.0685 50.9362 81.6525 50.6642 81.1725 50.4722C80.6925 50.2642 80.1885 50.1602 79.6605 50.1602Z" fill="#12415A"/>
<path d="M97.4732 59.9762V58.1282C96.9612 58.7362 96.3532 59.2162 95.6492 59.5682C94.9612 59.9202 94.2412 60.0962 93.4892 60.0962C92.6412 60.0962 91.8492 59.9442 91.1132 59.6402C90.3772 59.3202 89.7372 58.8722 89.1932 58.2962C88.6332 57.7202 88.1932 57.0642 87.8732 56.3282C87.5692 55.5762 87.4172 54.7842 87.4172 53.9522C87.4172 53.1202 87.5692 52.3362 87.8732 51.6002C88.1932 50.8482 88.6332 50.1842 89.1932 49.6082C89.7372 49.0322 90.3772 48.5922 91.1132 48.2882C91.8492 47.9682 92.6412 47.8082 93.4892 47.8082C94.3212 47.8082 95.0732 47.9762 95.7452 48.3122C96.4332 48.6482 97.0092 49.1122 97.4732 49.7042V44.0402H99.5852V59.9762H97.4732ZM93.4892 49.9922C92.9612 49.9922 92.4572 50.0962 91.9772 50.3042C91.4972 50.4962 91.0812 50.7762 90.7292 51.1442C90.3772 51.5122 90.0972 51.9442 89.8892 52.4402C89.6812 52.9202 89.5772 53.4242 89.5772 53.9522C89.5772 55.0242 89.9612 55.9602 90.7292 56.7602C91.0812 57.1282 91.4972 57.4162 91.9772 57.6242C92.4572 57.8322 92.9612 57.9362 93.4892 57.9362C94.0172 57.9362 94.5212 57.8322 95.0012 57.6242C95.4972 57.4162 95.9212 57.1282 96.2732 56.7602C97.0412 55.9602 97.4252 55.0242 97.4252 53.9522C97.4252 53.4242 97.3212 52.9202 97.1132 52.4402C96.9052 51.9442 96.6252 51.5122 96.2732 51.1442C95.9212 50.7762 95.4972 50.4962 95.0012 50.3042C94.5212 50.0962 94.0172 49.9922 93.4892 49.9922Z" fill="#12415A"/>
<path d="M101.978 59.9762V44.0162H103.898V59.9762H101.978Z" fill="#12415A"/>
<path d="M108.354 54.8882C108.354 55.2722 108.49 55.6722 108.762 56.0882C109.05 56.5042 109.378 56.8562 109.746 57.1442C110.418 57.6722 111.202 57.9362 112.098 57.9362C113.522 57.9362 114.682 57.2482 115.578 55.8722L117.402 56.9522C116.778 57.9602 116.01 58.7362 115.098 59.2802C114.186 59.8242 113.186 60.0962 112.098 60.0962C111.282 60.0962 110.506 59.9442 109.77 59.6402C109.034 59.3202 108.386 58.8802 107.826 58.3202C107.266 57.7602 106.826 57.1122 106.506 56.3762C106.202 55.6402 106.05 54.8642 106.05 54.0482C106.05 53.2322 106.202 52.4562 106.506 51.7202C106.826 50.9682 107.266 50.3122 107.826 49.7522C108.37 49.1922 109.01 48.7602 109.746 48.4562C110.498 48.1522 111.282 48.0002 112.098 48.0002C112.914 48.0002 113.69 48.1522 114.426 48.4562C115.178 48.7602 115.826 49.1922 116.37 49.7522C117.554 50.9682 118.146 52.3762 118.146 53.9762C118.146 54.2642 118.122 54.5682 118.074 54.8882H108.354ZM112.098 49.9682C111.442 49.9682 110.826 50.1122 110.25 50.4002C109.674 50.6882 109.21 51.0722 108.858 51.5522C108.522 52.0162 108.354 52.5122 108.354 53.0402H115.842C115.842 52.5122 115.666 52.0162 115.314 51.5522C114.978 51.0722 114.522 50.6882 113.946 50.4002C113.37 50.1122 112.754 49.9682 112.098 49.9682Z" fill="#12415A"/>
<path d="M126.119 51.5522C126.071 51.2642 125.967 50.9922 125.807 50.7362C125.503 50.2082 124.903 49.9442 124.007 49.9442C123.527 49.9442 123.159 50.0002 122.903 50.1122C122.567 50.2402 122.311 50.4242 122.135 50.6642C121.975 50.9042 121.895 51.1682 121.895 51.4562C121.895 51.8082 122.023 52.1282 122.279 52.4162C122.551 52.7202 122.991 52.8802 123.599 52.8962C124.671 52.9442 125.535 53.0722 126.191 53.2802C126.863 53.4882 127.375 53.8482 127.727 54.3602C128.095 54.8722 128.279 55.5922 128.279 56.5202C128.279 57.4642 127.919 58.2802 127.199 58.9682C126.847 59.3042 126.431 59.5762 125.951 59.7842C125.487 59.9922 124.999 60.0962 124.487 60.0962H124.127C122.847 60.0962 121.815 59.7282 121.031 58.9922C120.391 58.4002 119.991 57.5682 119.831 56.4962H121.967C122.047 56.8802 122.207 57.1922 122.447 57.4322C122.815 57.7842 123.327 57.9602 123.983 57.9602C124.159 57.9602 124.287 57.9522 124.367 57.9362C124.927 57.9042 125.367 57.7522 125.687 57.4802C126.007 57.1922 126.167 56.8402 126.167 56.4242C126.167 55.8482 125.991 55.4722 125.639 55.2962C125.287 55.1202 124.607 55.0322 123.599 55.0322C122.335 55.0322 121.367 54.6322 120.695 53.8322C120.151 53.2242 119.879 52.4562 119.879 51.5282C119.879 51.3202 119.887 51.1602 119.903 51.0482C120.031 50.0082 120.455 49.2162 121.175 48.6722C121.911 48.1122 122.879 47.8322 124.079 47.8322C124.959 47.8322 125.727 48.0242 126.383 48.4082C126.847 48.6962 127.247 49.0962 127.583 49.6082C127.903 50.1202 128.111 50.7602 128.207 51.5282L128.159 51.5522H126.119Z" fill="#12415A"/>
<path d="M136.01 51.5522C135.962 51.2642 135.858 50.9922 135.698 50.7362C135.394 50.2082 134.794 49.9442 133.898 49.9442C133.418 49.9442 133.05 50.0002 132.794 50.1122C132.458 50.2402 132.202 50.4242 132.026 50.6642C131.866 50.9042 131.786 51.1682 131.786 51.4562C131.786 51.8082 131.914 52.1282 132.17 52.4162C132.442 52.7202 132.882 52.8802 133.49 52.8962C134.562 52.9442 135.426 53.0722 136.082 53.2802C136.754 53.4882 137.266 53.8482 137.618 54.3602C137.986 54.8722 138.17 55.5922 138.17 56.5202C138.17 57.4642 137.81 58.2802 137.09 58.9682C136.738 59.3042 136.322 59.5762 135.842 59.7842C135.378 59.9922 134.89 60.0962 134.378 60.0962H134.018C132.738 60.0962 131.706 59.7282 130.922 58.9922C130.282 58.4002 129.882 57.5682 129.722 56.4962H131.858C131.938 56.8802 132.098 57.1922 132.338 57.4322C132.706 57.7842 133.218 57.9602 133.874 57.9602C134.05 57.9602 134.178 57.9522 134.258 57.9362C134.818 57.9042 135.258 57.7522 135.578 57.4802C135.898 57.1922 136.058 56.8402 136.058 56.4242C136.058 55.8482 135.882 55.4722 135.53 55.2962C135.178 55.1202 134.498 55.0322 133.49 55.0322C132.226 55.0322 131.258 54.6322 130.586 53.8322C130.042 53.2242 129.77 52.4562 129.77 51.5282C129.77 51.3202 129.778 51.1602 129.794 51.0482C129.922 50.0082 130.346 49.2162 131.066 48.6722C131.802 48.1122 132.77 47.8322 133.97 47.8322C134.85 47.8322 135.618 48.0242 136.274 48.4082C136.738 48.6962 137.138 49.0962 137.474 49.6082C137.794 50.1202 138.002 50.7602 138.098 51.5282L138.05 51.5522H136.01Z" fill="#12415A"/>
<path d="M158.902 60.0722C157.814 60.0722 156.782 59.8642 155.806 59.4482C154.83 59.0322 153.974 58.4482 153.238 57.6962C152.502 56.9602 151.926 56.1042 151.51 55.1282C151.094 54.1522 150.886 53.1122 150.886 52.0082C150.886 50.9042 151.086 49.8642 151.486 48.8882C151.902 47.9122 152.486 47.0482 153.238 46.2962C153.974 45.5602 154.83 44.9842 155.806 44.5682C156.782 44.1522 157.814 43.9442 158.902 43.9442C160.102 43.9442 161.238 44.2002 162.31 44.7122C163.382 45.2242 164.342 45.9842 165.19 46.9922L163.558 48.3842C162.246 46.8802 160.694 46.1282 158.902 46.1282C158.118 46.1282 157.366 46.2802 156.646 46.5842C155.942 46.8882 155.318 47.3122 154.774 47.8562C154.23 48.4002 153.806 49.0322 153.502 49.7522C153.198 50.4562 153.046 51.2082 153.046 52.0082C153.046 52.8082 153.198 53.5682 153.502 54.2882C153.806 54.9922 154.23 55.6162 154.774 56.1602C155.318 56.7042 155.942 57.1282 156.646 57.4322C157.366 57.7362 158.118 57.8882 158.902 57.8882C160.694 57.8882 162.246 57.1362 163.558 55.6322L165.19 57.0242C164.326 58.0322 163.358 58.7922 162.286 59.3042C161.23 59.8162 160.102 60.0722 158.902 60.0722Z" fill="#12415A"/>
<path d="M180.617 59.9762V47.4722L175.865 54.3362H174.233L169.505 47.4722V59.9762H167.345V44.0162H169.721L175.049 51.7202L180.377 44.0162H182.777V59.9762H180.617Z" fill="#12415A"/>
<path d="M193.701 48.9362C193.621 48.3122 193.453 47.8002 193.197 47.4002C192.909 46.9682 192.549 46.6562 192.117 46.4642C191.701 46.2562 191.165 46.1522 190.509 46.1522C189.421 46.1522 188.661 46.3842 188.229 46.8482C187.813 47.2642 187.605 47.8642 187.605 48.6482C187.605 49.0962 187.669 49.4642 187.797 49.7522C187.925 50.0242 188.117 50.2482 188.373 50.4242C188.757 50.6962 189.389 50.8722 190.269 50.9522C191.165 51.0322 191.917 51.1602 192.525 51.3362C193.149 51.4962 193.693 51.7202 194.157 52.0082C195.325 52.7442 195.909 53.8962 195.909 55.4642C195.909 56.0722 195.789 56.6482 195.549 57.1922C195.309 57.7362 194.973 58.2242 194.541 58.6562C194.029 59.1522 193.421 59.5202 192.717 59.7602C192.029 60.0002 191.309 60.1202 190.557 60.1202C188.861 60.1202 187.509 59.6402 186.501 58.6802C185.637 57.8162 185.117 56.6642 184.941 55.2242L184.989 55.2002H187.101C187.229 56.0482 187.517 56.6802 187.965 57.0962C188.589 57.6722 189.429 57.9602 190.485 57.9602C191.493 57.9602 192.293 57.7282 192.885 57.2642C193.477 56.8002 193.773 56.2002 193.773 55.4642C193.773 55.1282 193.725 54.8402 193.629 54.6002C193.549 54.3442 193.389 54.1202 193.149 53.9282C192.605 53.5122 191.589 53.2482 190.101 53.1362C188.581 53.0082 187.429 52.5682 186.645 51.8162C185.861 51.0642 185.469 50.0082 185.469 48.6482C185.469 47.2722 185.893 46.1602 186.741 45.3122C187.637 44.4162 188.885 43.9682 190.485 43.9682C192.149 43.9682 193.445 44.4722 194.373 45.4802C195.189 46.3602 195.685 47.5122 195.861 48.9362H193.701Z" fill="#12415A"/>
<path d="M0 59.9443L34.402 59.9443L34.402 54.4716L7.69362 54.4716L33.3919 36.7048L33.3919 32.1045L7.69363 14.3378L34.402 14.3378L34.402 8.94434L6.08169e-07 8.94434L5.28719e-07 15.6069L27.2053 34.4047L8.03955e-08 53.2025L0 59.9443Z" fill="#FBB34C"/>
<path d="M73.4493 9.24021C75.2093 9.24021 76.8284 9.6802 78.3068 10.5602C79.7852 11.405 80.9468 12.5842 81.7916 14.0977C82.6716 15.5761 83.1116 17.1953 83.1116 18.9553V35.6399H79.5212V18.9553C79.5212 17.2657 78.9228 15.8401 77.726 14.6785C76.5292 13.4818 75.1037 12.8834 73.4493 12.8834C71.7597 12.8834 70.3165 13.4818 69.1197 14.6785C67.9581 15.8401 67.3774 17.2481 67.3774 18.9025V18.9553V35.6399H63.7342V18.9025C63.7342 17.2481 63.1358 15.8401 61.939 14.6785C60.7422 13.4818 59.3167 12.8834 57.6623 12.8834C56.0079 12.8834 54.5823 13.4994 53.3855 14.7313C52.1887 15.9281 51.5904 17.3713 51.5904 19.0609V35.6399H48V9.9266H51.5904V11.9858C52.2943 11.141 53.1919 10.4722 54.2831 9.9794C55.4095 9.48661 56.5359 9.24021 57.6623 9.24021C59.2463 9.24021 60.7246 9.60981 62.0974 10.349C63.5054 11.0882 64.6494 12.0738 65.5294 13.3058C66.4446 12.0738 67.5886 11.0882 68.9613 10.349C70.3693 9.60981 71.8653 9.24021 73.4493 9.24021Z" fill="#12415A"/>
<path d="M114.509 9.9266V35.6399H110.865V30.7823C108.437 34.1967 105.198 35.9039 101.15 35.9039C98.7216 35.9039 96.4864 35.3231 94.4448 34.1615C92.4033 32.9647 90.7841 31.3455 89.5873 29.304C88.4257 27.2624 87.8449 25.0448 87.8449 22.6512C87.8449 20.2225 88.4257 17.9873 89.5873 15.9457C90.7841 13.9042 92.4033 12.3026 94.4448 11.141C96.4864 9.9442 98.7216 9.34581 101.15 9.34581C103.65 9.34581 105.691 9.8738 107.275 10.9298C108.894 11.9506 110.091 13.0594 110.865 14.2561V9.9266H114.509ZM101.15 32.3135C102.91 32.3135 104.53 31.8911 106.008 31.0463C107.486 30.1663 108.648 28.9872 109.493 27.5088C110.373 26.0304 110.813 24.4112 110.813 22.6512C110.813 20.8913 110.373 19.2721 109.493 17.7937C108.648 16.2801 107.486 15.1009 106.008 14.2561C104.53 13.3762 102.91 12.9362 101.15 12.9362C99.3904 12.9362 97.7536 13.3762 96.24 14.2561C94.7616 15.1009 93.5825 16.2801 92.7025 17.7937C91.8577 19.2721 91.4353 20.8913 91.4353 22.6512C91.4353 24.4112 91.8577 26.0304 92.7025 27.5088C93.5825 28.9872 94.7616 30.1663 96.24 31.0463C97.7536 31.8911 99.3904 32.3135 101.15 32.3135Z" fill="#12415A"/>
<path d="M131.654 12.8306H127.272V35.6399H123.628V12.8306H119.246V9.24021H123.628V0.52832H127.272V9.24021H131.654V12.8306Z" fill="#12415A"/>
<path d="M148.308 12.8306H143.926V35.6399H140.283V12.8306H135.901V9.24021H140.283V0.52832H143.926V9.24021H148.308V12.8306Z" fill="#12415A"/>
<path d="M154.758 24.3936C155.181 26.6464 156.289 28.5296 158.085 30.0431C159.88 31.5215 161.939 32.2607 164.262 32.2607C165.987 32.2607 167.571 31.8559 169.014 31.0463C170.457 30.2367 171.619 29.128 172.499 27.72L175.614 29.5152C174.417 31.4511 172.816 32.9999 170.809 34.1615C168.803 35.3231 166.62 35.9039 164.262 35.9039C161.868 35.9039 159.651 35.3055 157.609 34.1087C155.568 32.9119 153.949 31.2927 152.752 29.2512C151.555 27.2096 150.957 24.992 150.957 22.5984C150.957 20.1697 151.555 17.9521 152.752 15.9457C153.949 13.9042 155.568 12.285 157.609 11.0882C159.651 9.8914 161.868 9.29301 164.262 9.29301C166.656 9.29301 168.873 9.8914 170.915 11.0882C172.956 12.285 174.576 13.9042 175.772 15.9457C176.969 17.9521 177.567 20.1697 177.567 22.5984C177.567 23.0208 177.532 23.6192 177.462 24.3936H154.758ZM164.262 12.8834C162.713 12.8834 161.2 13.253 159.721 13.9921C158.243 14.6961 157.046 15.6817 156.131 16.9489C155.216 18.1809 154.758 19.5185 154.758 20.9617H173.766C173.766 19.5185 173.308 18.1809 172.393 16.9489C171.478 15.6817 170.281 14.6961 168.803 13.9921C167.36 13.253 165.846 12.8834 164.262 12.8834Z" fill="#12415A"/>
<path d="M194.41 13.1474C193.6 12.7954 192.79 12.6194 191.981 12.6194C190.326 12.6194 188.901 13.2178 187.704 14.4145C186.507 15.6113 185.909 17.0369 185.909 18.6913V35.6399H182.319V18.6913C182.319 16.7905 182.811 15.0657 183.797 13.517C184.818 11.933 186.138 10.7538 187.757 9.9794L187.863 9.9266C189.165 9.32821 190.538 9.02901 191.981 9.02901C194.234 9.02901 196.24 9.7154 198 11.0882L194.41 13.1474Z" fill="#12415A"/>
</svg>
